<svg xmlns="http://www.w3.org/2000/svg" xmlns:xlink="http://www.w3.org/1999/xlink" width="300" zoomAndPan="magnify" viewBox="0 0 224.87999 74.999997" height="100" preserveAspectRatio="xMidYMid meet" version="1.0"><defs><g/></defs><g fill="#ffffff" fill-opacity="1"><g transform="translate(10.066893, 70.482393)"><g><path d="M 3.265625 -68.953125 L 5.265625 -68.953125 L 3.265625 -67.265625 Z M 3.265625 -59.140625 L 3.265625 -65.46875 L 7.484375 -68.953125 L 15.390625 -68.953125 L 4.84375 -59.140625 Z M 6.921875 -59.140625 L 17.46875 -68.953125 L 22.453125 -68.953125 L 13.078125 -59.140625 Z M 14.546875 -52.296875 L 26.984375 -59.5625 L 24.3125 -49.0625 L 12.9375 -45.859375 Z M 12.546875 -44.28125 L 23.9375 -47.46875 L 22.671875 -42.421875 L 11.3125 -39.390625 Z M 10.890625 -37.84375 L 22.25 -40.875 L 20.734375 -34.859375 L 9.734375 -33.171875 Z M 9.34375 -31.703125 L 20.34375 -33.390625 L 19.21875 -28.84375 L 8.1875 -27.09375 Z M 7.796875 -25.578125 L 18.828125 -27.34375 L 17.53125 -22.28125 L 6.71875 -21.265625 Z M 6.359375 -19.8125 L 17.1875 -20.84375 L 16.0625 -16.515625 L 4.75 -13.421875 Z M 2.8125 -5.9375 L 4.328125 -11.875 L 15.671875 -14.96875 L 14.71875 -11.109375 L 2.8125 -4.984375 Z M 12.71875 0 L 23.71875 -9.796875 L 25.9375 -9.796875 L 20.453125 0 Z M 28.46875 -9.796875 L 28.46875 0 L 22.0625 0 L 27.546875 -9.796875 Z M 2.8125 0 L 2.8125 -3.40625 L 15.140625 -9.796875 L 21.578125 -9.796875 L 10.578125 0 Z M 16.3125 -59.140625 L 15.046875 -59.140625 L 24.421875 -68.953125 L 27.859375 -68.953125 L 27.859375 -63 L 27.484375 -61.46875 L 15.046875 -54.1875 Z M 16.3125 -59.140625 "/></g></g><g transform="translate(41.339265, 70.482393)"><g><path d="M 14.859375 -24.5625 L 4.5625 -10.96875 L 4.5625 -19.953125 L 14.859375 -26 Z M 4.5625 -24.359375 L 18.59375 -39.390625 L 26.078125 -39.390625 L 18.625 -29.546875 L 14.859375 -29.546875 L 14.859375 -27.65625 L 4.5625 -21.578125 Z M 4.5625 -8.609375 L 14.859375 -22.203125 L 14.859375 -14.34375 L 4.5625 -6.390625 Z M 11.875 0 L 23.4375 -9.796875 L 27.40625 -9.796875 L 20.03125 0 Z M 30.71875 -9.796875 L 30.71875 0 L 21.78125 0 L 29.171875 -9.796875 Z M 4.5625 0 L 4.5625 -4.609375 L 14.859375 -12.546875 L 14.859375 -9.796875 L 21.296875 -9.796875 L 9.734375 0 Z M 28.5 -39.390625 L 28.5 -29.546875 L 20.375 -29.546875 L 27.828125 -39.390625 Z M 30.71875 -68.953125 L 30.71875 -59.140625 L 21.265625 -59.140625 L 27.71875 -68.953125 Z M 14.859375 -59.140625 L 14.859375 -52.046875 L 4.5625 -36.46875 L 4.5625 -44.25 L 20.796875 -68.953125 L 26.046875 -68.953125 L 19.578125 -59.140625 Z M 14.859375 -39.390625 L 16.65625 -39.390625 L 4.5625 -26.421875 L 4.5625 -33.90625 L 14.859375 -49.484375 Z M 19.109375 -68.953125 L 4.5625 -46.8125 L 4.5625 -59.25 L 14.859375 -68.953125 Z M 4.5625 -68.953125 L 12.828125 -68.953125 L 4.5625 -61.1875 Z M 4.5625 -68.953125 "/></g></g><g transform="translate(74.860437, 70.482393)"><g><path d="M 14.859375 -24.5625 L 4.5625 -10.96875 L 4.5625 -19.953125 L 14.859375 -26 Z M 4.5625 -24.359375 L 18.59375 -39.390625 L 26.078125 -39.390625 L 18.625 -29.546875 L 14.859375 -29.546875 L 14.859375 -27.65625 L 4.5625 -21.578125 Z M 4.5625 -8.609375 L 14.859375 -22.203125 L 14.859375 -14.34375 L 4.5625 -6.390625 Z M 11.875 0 L 23.4375 -9.796875 L 27.40625 -9.796875 L 20.03125 0 Z M 30.71875 -9.796875 L 30.71875 0 L 21.78125 0 L 29.171875 -9.796875 Z M 4.5625 0 L 4.5625 -4.609375 L 14.859375 -12.546875 L 14.859375 -9.796875 L 21.296875 -9.796875 L 9.734375 0 Z M 28.5 -39.390625 L 28.5 -29.546875 L 20.375 -29.546875 L 27.828125 -39.390625 Z M 30.71875 -68.953125 L 30.71875 -59.140625 L 21.265625 -59.140625 L 27.71875 -68.953125 Z M 14.859375 -59.140625 L 14.859375 -52.046875 L 4.5625 -36.46875 L 4.5625 -44.25 L 20.796875 -68.953125 L 26.046875 -68.953125 L 19.578125 -59.140625 Z M 14.859375 -39.390625 L 16.65625 -39.390625 L 4.5625 -26.421875 L 4.5625 -33.90625 L 14.859375 -49.484375 Z M 19.109375 -68.953125 L 4.5625 -46.8125 L 4.5625 -59.25 L 14.859375 -68.953125 Z M 4.5625 -68.953125 L 12.828125 -68.953125 L 4.5625 -61.1875 Z M 4.5625 -68.953125 "/></g></g><g transform="translate(108.381609, 70.482393)"><g><path d="M 4.5625 -68.953125 L 14.859375 -68.953125 L 14.859375 -67.640625 L 4.5625 -59.84375 Z M 4.5625 -58.09375 L 14.859375 -65.890625 L 14.859375 -58.578125 L 4.5625 -49.796875 Z M 4.5625 -47.96875 L 14.859375 -56.75 L 14.859375 -49.546875 L 4.5625 -46.59375 Z M 4.5625 -45.125 L 14.859375 -48.078125 L 14.859375 -41.328125 L 4.5625 -37.109375 Z M 4.5625 -35.59375 L 14.859375 -39.8125 L 14.859375 -36.296875 L 4.5625 -31.3125 Z M 4.5625 -29.734375 L 14.859375 -34.71875 L 14.859375 -30.78125 L 4.5625 -25.546875 Z M 4.5625 -23.96875 L 14.859375 -29.203125 L 14.859375 -24.78125 L 4.5625 -21.21875 Z M 4.5625 -19.75 L 14.859375 -23.296875 L 14.859375 -20.734375 L 4.5625 -14.96875 Z M 4.5625 -13.359375 L 14.859375 -19.109375 L 14.859375 -14.90625 L 4.5625 -9.484375 Z M 8.4375 0 L 20.9375 -9.796875 L 21.921875 -9.796875 L 13.921875 0 Z M 15.703125 0 L 23.71875 -9.796875 L 27.125 -9.796875 L 21.921875 0 Z M 30.71875 -9.796875 L 30.71875 0 L 23.515625 0 L 28.703125 -9.796875 Z M 4.5625 0 L 4.5625 -7.90625 L 14.859375 -13.3125 L 14.859375 -9.796875 L 18.65625 -9.796875 L 6.15625 0 Z M 4.5625 0 "/></g></g><g transform="translate(140.497281, 70.482393)"><g><path d="M 11.65625 -68.953125 L 15.3125 -68.953125 L 11 -64.6875 Z M 10.640625 -62.34375 L 17.3125 -68.953125 L 21.359375 -68.953125 L 9.625 -55.984375 Z M 8.359375 -48 L 26.875 -61.078125 L 27.328125 -58.125 L 7.375 -41.75 Z M 9.234375 -53.453125 L 23.265625 -68.953125 L 25.65625 -68.953125 L 26.625 -62.625 L 8.671875 -49.9375 Z M 27.609375 -56.5 L 29.0625 -47.328125 L 19.703125 -43.359375 L 19.078125 -49.484375 Z M 17.390625 -42.34375 L 6.75 -37.8125 L 7.0625 -39.640625 L 18.09375 -48.671875 Z M 19.921875 -41.921875 L 29.265625 -45.921875 L 30.078125 -40.828125 L 20.59375 -36.828125 Z M 4.640625 -24.3125 L 5.34375 -28.84375 L 16.203125 -33.453125 L 15.390625 -27.40625 L 4.59375 -24.109375 Z M 12.40625 -5.03125 L 3.75 0 L 1.40625 0 L 2.34375 -7.234375 L 13.109375 -10.15625 Z M 3.09375 -12.6875 L 33.09375 -21.015625 L 33.59375 -17.296875 L 23.96875 -11.671875 L 23.546875 -14.625 L 13.734375 -14.625 L 13.3125 -11.671875 L 2.5625 -8.75 Z M 11.734375 0 L 6.53125 0 L 12.1875 -3.265625 Z M 24.171875 -10.15625 L 33.796875 -15.78125 L 34.296875 -12.015625 L 24.484375 -7.625 Z M 25.515625 0 L 24.703125 -6.1875 L 34.5 -10.578125 L 35.140625 -5.796875 L 28.5625 0 Z M 35.875 0 L 30.671875 0 L 35.34375 -4.109375 Z M 3.890625 -18.828125 L 32.671875 -23.9375 L 32.921875 -22.421875 L 3.296875 -14.203125 Z M 4.390625 -22.59375 L 15.171875 -25.90625 L 15 -24.453125 L 22.234375 -24.453125 L 21.78125 -27.90625 L 31.625 -30.890625 L 32.5 -25.234375 L 4.078125 -20.28125 Z M 20.796875 -35.390625 L 30.28125 -39.421875 L 31.40625 -32.296875 L 21.609375 -29.3125 Z M 6.5 -36.15625 L 17.140625 -40.734375 L 16.40625 -35.078125 L 5.578125 -30.5 Z M 6.5 -36.15625 "/></g></g><g transform="translate(177.778165, 70.482393)"><g><path d="M 4.5625 -62.453125 L 11.671875 -68.953125 L 16.125 -68.953125 L 4.5625 -56.359375 Z M 4.5625 -68.953125 L 9.59375 -68.953125 L 4.5625 -64.34375 Z M 19.046875 -59.140625 L 19.4375 -59.140625 L 27.65625 -67.296875 C 29.289062 -66.492188 30.53125 -65.285156 31.375 -63.671875 L 22.84375 -57.03125 C 22.5625 -58.4375 21.296875 -59.140625 19.046875 -59.140625 Z M 4.5625 -40.96875 L 14.859375 -49.015625 L 14.859375 -44.8125 L 4.5625 -38.578125 Z M 4.5625 -36.9375 L 14.859375 -43.15625 L 14.859375 -39.390625 L 17.8125 -39.390625 C 19.175781 -39.390625 20.078125 -39.472656 20.515625 -39.640625 C 22.296875 -40.335938 23.1875 -41.8125 23.1875 -44.0625 L 23.1875 -48.25 L 33.484375 -54.5 L 33.484375 -47.328125 L 4.5625 -26.8125 Z M 23.1875 -54.4375 C 23.1875 -54.96875 23.175781 -55.316406 23.15625 -55.484375 L 32.078125 -62.453125 C 32.859375 -60.972656 33.304688 -58.875 33.421875 -56.15625 L 23.1875 -49.90625 Z M 4.5625 -44.421875 L 14.859375 -54.609375 L 14.859375 -50.8125 L 4.5625 -42.765625 Z M 14.859375 -59.140625 L 14.859375 -56.578125 L 4.5625 -46.390625 L 4.5625 -54.296875 L 18.0625 -68.953125 L 20.0625 -68.953125 C 22.875 -68.953125 24.957031 -68.609375 26.3125 -67.921875 L 17.421875 -59.140625 Z M 23.1875 -24.875 C 23.1875 -25.414062 23.175781 -25.722656 23.15625 -25.796875 L 32.921875 -29.34375 C 33.296875 -28.351562 33.484375 -26.863281 33.484375 -24.875 L 33.484375 -23.328125 L 23.1875 -20.03125 Z M 4.5625 -12.65625 L 14.859375 -15.921875 L 14.859375 -11.984375 L 4.5625 -8.890625 Z M 4.5625 0 L 4.5625 -2.78125 L 32.75 -8.4375 C 32.75 -8.382812 32.644531 -8.125 32.4375 -7.65625 L 17.328125 0 Z M 20.453125 0 L 31.703125 -5.6875 C 30.265625 -1.914062 26.515625 -0.0195312 20.453125 0 Z M 4.5625 -7.421875 L 14.859375 -10.5 L 14.859375 -9.796875 L 19.046875 -9.796875 C 21.460938 -9.796875 22.796875 -10.863281 23.046875 -13 L 33.484375 -16.125 L 33.484375 -14.484375 C 33.484375 -12.648438 33.34375 -11.132812 33.0625 -9.9375 L 4.5625 -4.1875 Z M 23.1875 -14.484375 L 23.1875 -18.546875 L 33.484375 -21.859375 L 33.484375 -17.609375 Z M 4.5625 -19.046875 L 14.859375 -22.765625 L 14.859375 -17.390625 L 4.5625 -14.125 Z M 20.515625 -29.265625 C 20.046875 -29.453125 19.144531 -29.546875 17.8125 -29.546875 L 14.859375 -29.546875 L 14.859375 -24.28125 L 4.5625 -20.5625 L 4.5625 -25.09375 L 33.484375 -45.609375 L 33.484375 -44.0625 C 33.484375 -39.5625 31.632812 -36.363281 27.9375 -34.46875 C 30.375 -33.226562 31.863281 -31.953125 32.40625 -30.640625 L 22.84375 -27.15625 C 22.632812 -28.050781 21.859375 -28.753906 20.515625 -29.265625 Z M 20.515625 -29.265625 "/></g></g></g></svg>